HIERARCHY
ROOT Hips
{
	OFFSET -3.958830 18.904000 13.208200
	CHANNELS 6 Xposition Yposition Zposition Zrotation Yrotation Xrotation 
	JOINT LHipJoint
	{
		OFFSET 0.000000 0.000000 0.000000
		CHANNELS 3 Zrotation Yrotation Xrotation
		JOINT LeftUpLeg
		{
			OFFSET 1.800000 -1.400000 0.085000
			CHANNELS 3 Zrotation Yrotation Xrotation
			JOINT LeftLeg
			{
				OFFSET 2.215000 -6.000000 0.000000
				CHANNELS 3 Zrotation Yrotation Xrotation
				JOINT LeftFoot
				{
					OFFSET 2.500000 -6.900000 0.000000
					CHANNELS 3 Zrotation Yrotation Xrotation
					JOINT LeftToeBase
					{
						OFFSET 0.200000 -0.500000 1.950000
						CHANNELS 3 Zrotation Yrotation Xrotation
						End Site
						{
							OFFSET 0.000000 0.000000 0.000000
						}
					}
				}
			}
		}
	}
	JOINT RHipJoint
	{
		OFFSET 0.000000 0.000000 0.000000
		CHANNELS 3 Zrotation Yrotation Xrotation
		JOINT RightUpLeg
		{
			OFFSET -1.800000 -1.400000 0.085000
			CHANNELS 3 Zrotation Yrotation Xrotation
			JOINT RightLeg
			{
				OFFSET -2.215000 -6.000000 0.000000
				CHANNELS 3 Zrotation Yrotation Xrotation
				JOINT RightFoot
				{
					OFFSET -2.500000 -6.900000 0.000000
					CHANNELS 3 Zrotation Yrotation Xrotation
					JOINT RightToeBase
					{
						OFFSET -0.200000 -0.500000 1.950000
						CHANNELS 3 Zrotation Yrotation Xrotation
						End Site
						{
							OFFSET 0.000000 0.000000 0.000000
						}
					}
				}
			}
		}
	}
	JOINT LowerBack
	{
		OFFSET 0.000000 0.000000 0.000000
		CHANNELS 3 Zrotation Yrotation Xrotation
		JOINT Spine
		{
			OFFSET -0.087000 1.940000 -0.288900
			CHANNELS 3 Zrotation Yrotation Xrotation
			JOINT Spine1
			{
				OFFSET 0.000000 1.950000 0.060000
				CHANNELS 3 Zrotation Yrotation Xrotation
				JOINT Neck
				{
					OFFSET 0.000000 0.000000 0.000000
					CHANNELS 3 Zrotation Yrotation Xrotation
					JOINT Neck1
					{
						OFFSET 0.000000 1.600000 0.340000
						CHANNELS 3 Zrotation Yrotation Xrotation
						JOINT Head
						{
							OFFSET 0.000000 1.667000 -0.240000
							CHANNELS 3 Zrotation Yrotation Xrotation
							End Site
							{
								OFFSET 0.000000 0.000000 0.000000
							}
						}
					}
				}
				JOINT LeftShoulder
				{
					OFFSET 0.000000 0.000000 0.000000
					CHANNELS 3 Zrotation Yrotation Xrotation
					JOINT LeftArm
					{
						OFFSET 2.700000 1.550000 -0.730000
						CHANNELS 3 Zrotation Yrotation Xrotation
						JOINT LeftForeArm
						{
							OFFSET 5.450000 0.000000 0.000000
							CHANNELS 3 Zrotation Yrotation Xrotation
							JOINT LeftHand
							{
								OFFSET 3.450000 0.000000 0.000000
								CHANNELS 3 Zrotation Yrotation Xrotation
								JOINT LeftHandIndex1
								{
									OFFSET 0.750000 0.000000 0.000000
									CHANNELS 3 Zrotation Yrotation Xrotation
									End Site
									{
										OFFSET 0.000000 0.000000 0.000000
									}
								}
							}
						}
					}
				}
				JOINT RightShoulder
				{
					OFFSET 0.000000 0.000000 0.000000
					CHANNELS 3 Zrotation Yrotation Xrotation
					JOINT RightArm
					{
						OFFSET -2.700000 1.550000 -0.730000
						CHANNELS 3 Zrotation Yrotation Xrotation
						JOINT RightForeArm
						{
							OFFSET -5.450000 0.000000 0.000000
							CHANNELS 3 Zrotation Yrotation Xrotation
							JOINT RightHand
							{
								OFFSET -3.450000 0.000000 0.000000
								CHANNELS 3 Zrotation Yrotation Xrotation
								JOINT RightHandIndex1
								{
									OFFSET -0.750000 0.000000 0.000000
									CHANNELS 3 Zrotation Yrotation Xrotation
									End Site
									{
										OFFSET 0.000000 0.000000 0.000000
									}
								}
							}
						}
					}
				}
			}
		}
	}
}
MOTION
Frames: 7
Frame Time: 0.016667
0.805140 17.289220 -1.127320 -3.615149 2.417427 2.636200 -15.315951 12.757297 3.075197 -1.698299 0.492303 -2.497440 -6.823683 3.775275 -0.345382 -0.701670 5.050173 3.369878 0.145310 -0.278140 -0.185910 18.337151 -10.050798 3.147348 0.429980 2.681188 -19.660316 6.926000 -2.915721 -1.452983 -0.229609 -2.931827 3.293077 0.112800 1.262310 1.024000 -3.521630 -1.763871 -7.435488 8.846887 -1.139292 6.175631 -1.667005 -1.346270 7.141673 2.386881 -0.508298 -8.541060 -1.375195 3.996630 25.723980 -5.123590 2.382700 -6.320800 -11.565534 -9.539747 2.548177 -19.735057 -12.820929 0.602714 10.272332 -30.907558 -3.123652 -4.483208 2.817457 0.583170 0.830200 -0.050580 0.594620 7.269887 9.819806 4.795907 21.665067 11.883123 -3.787266 -14.078095 33.034856 -3.083832 1.532241 -1.476228 -0.431940 0.452040 0.310250 0.102150 
0.805870 17.289280 -1.127730 -3.616054 2.428817 2.629327 -15.316077 12.757559 3.075458 -1.700933 0.494494 -2.490071 -6.822565 3.775285 -0.349147 -0.700868 5.050927 3.369799 0.145330 -0.278520 -0.185600 18.337117 -10.049668 3.148004 0.439283 2.690722 -19.713513 6.898780 -2.910059 -1.450711 -0.228512 -2.926655 3.294394 0.112380 1.262360 1.024550 -3.521559 -1.764938 -7.436259 8.847922 -1.143770 6.183547 -1.671340 -1.349266 7.145979 2.386453 -0.506022 -8.544786 -1.372114 3.992212 25.723764 -5.124700 2.380900 -6.308180 -11.556690 -9.547869 2.550490 -19.743285 -12.832559 0.602476 10.279202 -30.909640 -3.126625 -4.483325 2.818029 0.582870 0.830330 -0.050580 0.594630 7.261261 9.824034 4.800300 21.693671 11.879309 -3.793154 -14.118267 33.023450 -3.096026 1.532502 -1.476850 -0.431510 0.451470 0.310140 0.102260 
0.807360 17.289300 -1.128370 -3.623173 2.458688 2.618443 -15.316099 12.758084 3.075153 -1.697156 0.498363 -2.479685 -6.826504 3.777378 -0.348826 -0.699355 5.052831 3.369604 0.145070 -0.278970 -0.185540 18.337311 -10.046991 3.149780 0.456978 2.709583 -19.814781 6.851824 -2.897967 -1.457455 -0.226326 -2.917367 3.296744 0.111970 1.262910 1.025310 -3.522193 -1.767366 -7.437516 8.860871 -1.158609 6.196425 -1.681920 -1.360460 7.149689 2.384831 -0.506903 -8.547129 -1.374449 3.984836 25.714017 -5.128080 2.374550 -6.282560 -11.541719 -9.552830 2.550988 -19.764239 -12.857151 0.603906 10.293770 -30.917539 -3.132370 -4.483784 2.818798 0.581810 0.830820 -0.050730 0.594770 7.247754 9.823476 4.803541 21.727643 11.870167 -3.801192 -14.172418 33.014459 -3.112709 1.533081 -1.477977 -0.430970 0.450840 0.309900 0.102860 
0.809560 17.289440 -1.129420 -3.638270 2.502694 2.599054 -15.316242 12.759812 3.074560 -1.687031 0.503830 -2.466420 -6.830731 3.781674 -0.339413 -0.697835 5.055398 3.369213 0.144140 -0.280250 -0.185820 18.337219 -10.043045 3.153048 0.483541 2.737709 -19.962184 6.788271 -2.881060 -1.469841 -0.223038 -2.903644 3.300699 0.111030 1.263540 1.025860 -3.522416 -1.772065 -7.440513 8.880020 -1.181696 6.227585 -1.695546 -1.377470 7.147018 2.387791 -0.500862 -8.551732 -1.366179 3.971902 25.709744 -5.138310 2.370900 -6.252560 -11.555355 -9.572799 2.553279 -19.736468 -12.859462 0.596992 10.293034 -30.929956 -3.132254 -4.484240 2.819347 0.581040 0.831340 -0.051000 0.594720 7.252950 9.830469 4.810130 21.733366 11.841624 -3.815971 -14.217316 33.011080 -3.125575 1.533598 -1.478584 -0.430730 0.450260 0.310010 0.103270 
0.812320 17.289500 -1.130760 -3.660158 2.554565 2.574162 -15.316340 12.761603 3.074006 -1.670847 0.510730 -2.447291 -6.840214 3.787200 -0.332903 -0.696290 5.059056 3.368631 0.143480 -0.281750 -0.185270 18.337195 -10.037766 3.157669 0.518817 2.775189 -20.155617 6.704942 -2.858747 -1.491565 -0.219062 -2.885393 3.306338 0.109820 1.263830 1.026370 -3.522922 -1.777432 -7.445100 8.909138 -1.209505 6.272473 -1.719462 -1.396408 7.140172 2.396747 -0.486885 -8.557611 -1.344792 3.956635 25.708570 -5.155660 2.375050 -6.227790 -11.584856 -9.601815 2.555501 -19.661547 -12.847007 0.586046 10.270875 -30.938926 -3.124129 -4.484508 2.819631 0.580920 0.831700 -0.051090 0.594660 7.260949 9.838008 4.819209 21.733522 11.798552 -3.834808 -14.253123 33.012326 -3.135683 1.533904 -1.479007 -0.430690 0.449670 0.309800 0.103180 
0.815490 17.289300 -1.132190 -3.675321 2.605902 2.548250 -15.316745 12.763111 3.073584 -1.663800 0.520812 -2.422866 -6.853343 3.793536 -0.328568 -0.694991 5.063837 3.367818 0.142700 -0.283560 -0.185070 18.337067 -10.030641 3.163074 0.544762 2.820148 -20.397561 6.612608 -2.831735 -1.523668 -0.214029 -2.864064 3.312983 0.108700 1.264650 1.026780 -3.522927 -1.784170 -7.449952 8.931140 -1.237580 6.319386 -1.742263 -1.414414 7.132982 2.401938 -0.478463 -8.561487 -1.332786 3.945195 25.699483 -5.169820 2.376050 -6.196350 -11.600351 -9.621955 2.555048 -19.607787 -12.847579 0.579542 10.260597 -30.945820 -3.120274 -4.485270 2.819944 0.580640 0.832410 -0.051840 0.594590 7.262568 9.840217 4.826116 21.738653 11.753475 -3.855435 -14.299868 33.017808 -3.149019 1.533624 -1.479705 -0.430940 0.449320 0.310030 0.102980 
0.819020 17.289140 -1.133810 -3.689323 2.658158 2.515832 -15.317042 12.764583 3.073466 -1.665251 0.534711 -2.387792 -6.857563 3.798391 -0.331478 -0.693972 5.068903 3.366798 0.141030 -0.286100 -0.185930 18.337152 -10.022184 3.169497 0.568243 2.871757 -20.680998 6.507453 -2.800595 -1.563768 -0.207994 -2.839701 3.320269 0.107420 1.265780 1.026920 -3.523522 -1.791853 -7.455891 8.960450 -1.271324 6.375547 -1.775414 -1.434358 7.129283 2.406309 -0.476442 -8.569419 -1.332408 3.937869 25.693382 -5.179580 2.374190 -6.159720 -11.604789 -9.645178 2.558299 -19.566267 -12.846605 0.571484 10.262618 -30.950187 -3.120710 -4.486122 2.819932 0.580500 0.833140 -0.052910 0.594240 7.253572 9.848898 4.836165 21.754943 11.712280 -3.876607 -14.357744 33.005430 -3.164540 1.533454 -1.480145 -0.431690 0.449110 0.310980 0.102870 
